<svg id="Layer_1" data-name="Layer 1" xmlns="http://www.w3.org/2000/svg" viewBox="0 0 813.07 821.36"><defs><style>.cls-1,.cls-10,.cls-41,.cls-48{fill:#231f20;}.cls-2{fill:#efeee6;}.cls-10,.cls-11,.cls-12,.cls-13,.cls-14,.cls-15,.cls-16,.cls-2,.cls-20,.cls-22,.cls-34,.cls-35,.cls-36,.cls-37,.cls-38,.cls-39,.cls-4,.cls-40,.cls-41,.cls-42,.cls-46,.cls-48,.cls-5,.cls-6,.cls-7,.cls-8,.cls-9{stroke:#231f20;stroke-miterlimit:10;}.cls-2,.cls-34{stroke-width:5.42px;}.cls-3{fill:#ebbd36;}.cls-34,.cls-4{fill:none;}.cls-10,.cls-11,.cls-12,.cls-13,.cls-14,.cls-15,.cls-16,.cls-20,.cls-22,.cls-4,.cls-46,.cls-5,.cls-6,.cls-7,.cls-8,.cls-9{stroke-width:2.71px;}.cls-5{fill:#713916;}.cls-6{fill:#b21413;}.cls-7{fill:#bd1816;}.cls-25,.cls-37,.cls-42,.cls-8{fill:#fff;}.cls-9{fill:#65d6e4;}.cls-11{fill:#f9daac;}.cls-12{fill:#edb079;}.cls-13{fill:#6d6029;}.cls-14{fill:#547330;}.cls-15{fill:#e5d8b6;}.cls-16{fill:#755024;}.cls-17{fill:#d7cdcc;}.cls-18{fill:#58c8d3;}.cls-19{fill:#ceab73;}.cls-20{fill:#d99358;}.cls-21{fill:#bc7139;}.cls-22{fill:#703a16;}.cls-23{fill:#594d1e;}.cls-24{fill:#bfa977;}.cls-26{fill:#9ec46c;}.cls-27{fill:#ce915f;}.cls-28{fill:#4f250e;}.cls-29{fill:#9b1010;}.cls-30{fill:#e0c390;}.cls-31{fill:#a6ede6;}.cls-32{fill:#f2ccad;}.cls-33{fill:#c6ba8b;}.cls-35,.cls-36{fill:#ffe9b8;}.cls-35,.cls-37,.cls-38,.cls-40{stroke-width:4.07px;}.cls-36{stroke-width:2.89px;}.cls-38,.cls-45{fill:#efbf9e;}.cls-39{fill:#993939;stroke-width:3.32px;}.cls-40{fill:#dd7936;}.cls-41{stroke-width:1.79px;}.cls-42{stroke-width:4.44px;}.cls-43{fill:#f4bd98;}.cls-44{fill:#dd9f7c;}.cls-46{fill:#d37188;}.cls-47{fill:#d33c63;}.cls-48{stroke-width:3.31px;}</style></defs><title>gophers2</title><path class="cls-1" d="M166.1,828.2" transform="translate(-102.59 -89.01)"/><path class="cls-1" d="M201,791.4" transform="translate(-102.59 -89.01)"/><path class="cls-1" d="M199.7,781.9" transform="translate(-102.59 -89.01)"/><path class="cls-1" d="M189,779.5" transform="translate(-102.59 -89.01)"/><circle class="cls-2" cx="422.61" cy="392.29" r="386.5"/><path class="cls-3" d="M208.8,545.5s6.3-162.7,253.1-162.7S710.5,545.5,710.5,545.5Z" transform="translate(-102.59 -89.01)"/><path class="cls-1" d="M438.5,545.5l15.2-27.8a177.93,177.93,0,0,0,17.4-46.2l4.5-20,17.1-81.6a201.39,201.39,0,0,1,17.5-49.7l14.6-28.8a3.18,3.18,0,0,0-3.6-4.5l-22.3,5.8a91.8,91.8,0,0,0-45.4,27.7l-33.9,38s-14.5-42.5-4.5-67.8,16.3-25.3,16.3-25.3l11.5-7.6a123.57,123.57,0,0,1,68-20.4h0s-18.1-19.9-48.8-20.8c-23.5-.7-47.5,6.5-57.5,10a2.08,2.08,0,0,1-2.5-3c4.2-7.7,14.7-23.3,36.3-36.9,29.9-19,41-18.9,41-18.9s40.7-9,57,16.3c13,20.3,24.9,37.7,29.1,43.8a1.36,1.36,0,0,0,2.4-.4c1.8-7.3,5.5-27.9-6.2-46.1-9-14-21.8-25.3-30.2-31.8a165.65,165.65,0,0,1-19.1-17.4L501,119.8a3.46,3.46,0,0,1,1.3-5.6c12.6-5,48-16.3,72.2,2,27.2,20.6,37.1,85.5,38.7,96.8a1.13,1.13,0,0,0,1.7.8L651.6,191c15-9.3,32.3-14.6,50-14a55.68,55.68,0,0,1,23.1,5.2c18.9,9.4,30.2,31.7,33.9,40.1a2.41,2.41,0,0,1-2.1,3.4c-8.9.3-33.6,1.1-62,1a73.73,73.73,0,0,0-45.2,15.4L638,250.9l-3.6,5.4,20.5-1.9a150.1,150.1,0,0,1,76.2,13l.4.2a22.09,22.09,0,0,1,11.9,13c2.1,6,4.9,14.1,7.4,21.1a41.68,41.68,0,0,1-1.6,31.4h0s-24.4-19-68.7-38-56-13.6-56-13.6l28,36.2a33,33,0,0,1,2.8,3.4c9.5,13.4,9.7,31.2,1.3,45.3l-3.5,5.9a2.63,2.63,0,0,1-4.6,0c-6.5-11.4-26.2-44-48.4-61-27.1-20.8-19.9-12.7-19.9-12.7l-14,14.5A83.22,83.22,0,0,0,548,342.2l-8.5,23.4S525.9,390,525,427.1a423.72,423.72,0,0,0,1.8,49.9,338.46,338.46,0,0,1,1.8,34.9v33.7H438.5Z" transform="translate(-102.59 -89.01)"/><line class="cls-4" x1="47.51" y1="456.49" x2="792.41" y2="456.49"/><path class="cls-5" d="M436.6,677.5,646,693.1a1.05,1.05,0,0,1,.9.5v.1c5.5,7.8-.9,18.4-10.4,17.6l-194-16c-5.5-.4-10.1-4.8-10.1-10.3A9.34,9.34,0,0,1,436.6,677.5Z" transform="translate(-102.59 -89.01)"/><path class="cls-5" d="M839.1,387.3,647,693.6s7.4,13.4-10.4,17.6c0,0,18.1,1.1,28.3-16.9,12.5-22,158-256.9,181.8-295.1a14.47,14.47,0,0,0,1.1-13.8C846.2,382.1,843.5,380.4,839.1,387.3Z" transform="translate(-102.59 -89.01)"/><polygon class="cls-6" points="736.51 298.29 558.91 293.49 339.91 588.49 544.41 604.59 736.51 298.29"/><path class="cls-5" d="M456.7,696.4,432.5,758s1.2,19.2,15.4,5l28.5-64.9Z" transform="translate(-102.59 -89.01)"/><path class="cls-5" d="M613.4,709.3l-23.7,82.1s6.1,16.3,15.6,0,24.4-80.1,24.4-80.1Z" transform="translate(-102.59 -89.01)"/><path class="cls-7" d="M647.5,709.3s48.8-8.5,110.8-62.2A73.55,73.55,0,0,0,781,610.8c12.2-45.4,40.7-152.1,46.9-181l-163,264.6S658.4,707.4,647.5,709.3Z" transform="translate(-102.59 -89.01)"/><path class="cls-5" d="M689.3,653.8l70.4,95.5a16.9,16.9,0,0,0,12.2,7.1c5.2.4,10.2-1.9,6.4-13.8L700.5,638.2a1.12,1.12,0,0,0-1.9.1Z" transform="translate(-102.59 -89.01)"/><polygon class="cls-5" points="658.11 449.09 644.01 611.09 652.91 622.99 670.11 430.09 658.11 449.09"/><path class="cls-8" d="M609.6,426.4c0,25.4-17.3,45.9-38.6,45.9s-38.6-20.6-38.6-45.9c0-18.1,8.8-33.7,21.6-41.2a33.43,33.43,0,0,1,17-4.7C592.4,380.4,609.6,401,609.6,426.4Z" transform="translate(-102.59 -89.01)"/><path class="cls-9" d="M595.5,392.2s-30.8,37.9-45.3,75a40.43,40.43,0,0,1-19.9,21.4c-27.1,13.2-81.5,47.6-75.8,110.3,7.5,83.2,92.5,78.6,92.5,78.6s-25.8,61.5,42.7,7.2c0,0,60.3-14.4,99.2-57.8l77.5-123.5s10.6-45.7,0-64.6l-77-44.3Z" transform="translate(-102.59 -89.01)"/><ellipse class="cls-10" cx="547.02" cy="405.96" rx="13.4" ry="8.7" transform="translate(-141.27 664.8) rotate(-67.29)"/><path class="cls-11" d="M459.7,626s-30.3,16.3-23.1,33c6.3,14.5,28.9-4.9,34.8-10.4a1.9,1.9,0,0,0,.1-2.7C469.3,643.4,464.3,637.3,459.7,626Z" transform="translate(-102.59 -89.01)"/><path class="cls-12" d="M547.8,570.4a.39.39,0,0,0,.1.7c5.2,1.5,34.8,9.7,64.7,5.6,28.5-3.9,41.1-15.3,44-18.3a.6.6,0,0,0-.3-1C648.3,555.4,592.3,542.5,547.8,570.4Z" transform="translate(-102.59 -89.01)"/><path class="cls-13" d="M547,573.6l-.1,36.9a9.71,9.71,0,0,0,3.9,7.9l.7.5a143.55,143.55,0,0,0,35.8,20.2c9.7,3.7,20.2,6.5,27,4.7,11.5-3,37.3-26.7,49.7-38.5a19.27,19.27,0,0,0,5.8-15.9h0A41.24,41.24,0,0,0,666,576l-7.9-16.8a1.55,1.55,0,0,0-2.2-.6c-7.1,5.5-41.3,28.1-106,12.6A2.7,2.7,0,0,0,547,573.6Z" transform="translate(-102.59 -89.01)"/><path class="cls-1" d="M577.2,566.3a133.12,133.12,0,0,0,14.1.7c2.3,0,4.7-.1,7-.2,1.2-.1,2.3-.1,3.5-.2l3.5-.4c1.2-.1,2.3-.3,3.5-.4s2.3-.3,3.5-.5l3.5-.6c1.1-.2,2.3-.5,3.4-.7,2.3-.4,4.6-1.1,6.9-1.6a33.73,33.73,0,0,0,3.4-.9l3.4-.9a31.83,31.83,0,0,1-3.2,1.6,33.1,33.1,0,0,1-3.3,1.5,53.47,53.47,0,0,1-6.7,2.4,75.11,75.11,0,0,1-14.1,2.9,77,77,0,0,1-14.4.2A61.17,61.17,0,0,1,577.2,566.3Z" transform="translate(-102.59 -89.01)"/><path class="cls-14" d="M599.9,460l2.3,107.8h.1l9.4-1.3a2,2,0,0,0,1.7-2L609.7,460Z" transform="translate(-102.59 -89.01)"/><path class="cls-8" d="M577.2,453.2s-13.7,31.5-6.2,36.3a.35.35,0,0,1,.2.1c5.6,3.5,13.1.9,16.1-5L599.8,460Z" transform="translate(-102.59 -89.01)"/><line class="cls-4" x1="484.11" y1="368.39" x2="470.71" y2="401.59"/><path class="cls-11" d="M529.7,482.2s-19,4-13.7,33.9a41.89,41.89,0,0,0,7.2,17.6c4.1,5.5,10.3,10.2,17.5,4.4,0,0,15.5-9.4,10.2-36S529.7,482.2,529.7,482.2Z" transform="translate(-102.59 -89.01)"/><ellipse class="cls-8" cx="586.21" cy="378.19" rx="48.8" ry="51.9"/><ellipse class="cls-10" cx="687.43" cy="479.32" rx="10.9" ry="13.4" transform="translate(-123.75 -57.15) rotate(-2.62)"/><path class="cls-11" d="M675.3,538.1s-46.2,23.7-27.8,44.5,50.9-24,50.9-24" transform="translate(-102.59 -89.01)"/><path class="cls-11" d="M557.1,664.2s-16.6,14.2-14.9,34.5c0,0-1.1,13.7,15.7,10.7a32.82,32.82,0,0,0,15.2-7.4,84.86,84.86,0,0,0,19.6-24.6" transform="translate(-102.59 -89.01)"/><path class="cls-15" d="M566.4,437.6c1.6-9.1,16.9-14.1,34.2-11.1s30.2,12.7,28.6,21.8-29.2,15.5-46.6,12.6c-2.9-.5,0,0-2.6-.8C567,455.8,565.1,445.1,566.4,437.6Z" transform="translate(-102.59 -89.01)"/><ellipse class="cls-16" cx="595.5" cy="434.65" rx="8.3" ry="12.9" transform="translate(-35.61 859.65) rotate(-80.33)"/><path class="cls-1" d="M131.5,356.8a2,2,0,0,1-3-1.1c-1.8-7.4-5-28.5,8.9-46.1a42.94,42.94,0,0,1,19.3-13.3c16.9-6.2,35.8-3.9,51.6,4.8,7.8,4.3,16.7,9.5,22.9,14.4a.57.57,0,0,0,.8-.8c-7.5-10-26.2-36.7-27.7-54.8-.9-11.8,4.1-24.2,9-33.2A54,54,0,0,1,238.9,203a30.8,30.8,0,0,1,11-2.8,4.16,4.16,0,0,1,3.8,5.7,90.3,90.3,0,0,0-5.2,44.2c2.8,22.4,8.9,44.3,11.5,53a1,1,0,0,0,1.9-.1c2.5-12.3,11.4-49.3,30.9-58.3,23.5-10.8,52.4-7.2,64.2,5.4,8.6,9.2-25.5,31.3-44.7,42.7a40,40,0,0,0-19.5,29.1l-.1.5s22.7.2,46.1-1.8c40.9-3.5,49.7,46.1,49.7,46.1s4.5,10.8-24.4,0-61.5-6.3-61.5-6.3l24.9,42.9a84,84,0,0,1,10.3,28.2l3.1,17.6a104.08,104.08,0,0,0,8.2,25.9l13.2,28.3,8.1,42.5H311.6l.7-15.3a116.79,116.79,0,0,0-7.1-45.7h0a120.73,120.73,0,0,1-7.3-34.6l-.8-12.9-24.2-53.8a29.3,29.3,0,0,0-15.3-14.9h0s-35.6,11.8-47.3,37.1c-8.9,19.2-9.5,41.1-9.3,50.4a2.44,2.44,0,0,1-3.8,2.1c-10.7-7.4-38.9-29.7-37.1-59.8,2.3-37.1,32.1-47.9,32.1-47.9s22.2-9.3,37.2-10.1a.88.88,0,0,0,.3-1.7c-10.1-3.3-33.8-9.4-56.5-1.8S136.6,353.2,131.5,356.8Z" transform="translate(-102.59 -89.01)"/><path class="cls-17" d="M550.7,389s15-2.8,20.4,11.3-2.3,27.9-2.3,27.9,12.8-20.8,22.3-32.4c0,0-17.1-8.6-25.1-9.9l-5.9-2.1C560.2,383.7,556.1,384.2,550.7,389Z" transform="translate(-102.59 -89.01)"/><path class="cls-17" d="M653.4,433.4s42,7,62.1,30.8c34,40.2-28.1,53.6-28.1,53.6s31.2,3.2,45.3-31.4c0,0,10-24.6-3.2-44.6L681,427.4l-14.7-4.6S660.3,425.7,653.4,433.4Z" transform="translate(-102.59 -89.01)"/><path class="cls-18" d="M733.7,442.9s21.7,39.9-20,71c0,0-1.6,100.8-122,169.2,0,0,41.1-11.4,72.6-35.7,0,0,9.2-5.9,23.4-21.1L721.9,572l36.8-59.1,6.1-9.9s6.8-24.7,4.2-50.4Z" transform="translate(-102.59 -89.01)"/><path class="cls-18" d="M586.7,405.9s19.8,17.8,63.4,27.5c0,0,7.2-8.4,12.8-11.6,0,0-20.8-6-69.2-24.9Z" transform="translate(-102.59 -89.01)"/><path class="cls-18" d="M552.1,499.3s8.4,33.6-16.2,42.6c0,0,11.9,3.1,17.6-3.8S562,508.1,552.1,499.3Z" transform="translate(-102.59 -89.01)"/><path class="cls-18" d="M699.3,559.3s-12.2,18.3-28.6,26.8l.6,5C671.3,591,692,580.3,699.3,559.3Z" transform="translate(-102.59 -89.01)"/><path class="cls-18" d="M677,587.4s-14.7,43.7-43.5,62.5c0,0-20.5,11.4-52-11.4,0,0,23.1,10.1,34.7,6.3s39.2-28.7,50.9-40.5a21,21,0,0,0,4-15.2c-.3-2.2.5-.7.5-.7l5.4-2.5v1.5Z" transform="translate(-102.59 -89.01)"/><path class="cls-19" d="M453.8,631.1s3.7,19.5-13.4,30.7c0,0,4,4.4,16.9-3.8a100.88,100.88,0,0,0,13.6-10.5A88.86,88.86,0,0,1,459,628C459,627.9,457.9,627.6,453.8,631.1Z" transform="translate(-102.59 -89.01)"/><path class="cls-19" d="M543.7,700.7s25.5-7.5,38.5-26.9l9.5,3.2s-14.5,27-33.6,31.1C558.1,708.1,544.9,711.3,543.7,700.7Z" transform="translate(-102.59 -89.01)"/><path class="cls-19" d="M644.3,572.5s24.7,14.8,42.4-23.8l10.5,9.4s-17.9,23.6-33.7,27.9C663.5,586,648.9,590.6,644.3,572.5Z" transform="translate(-102.59 -89.01)"/><path class="cls-19" d="M524,532.5s30.2-16.8,12.7-49.2c0,0,9.8-.2,13.2,22.2,0,0,5.4,24.2-13,33.4C537,538.9,531.2,542,524,532.5Z" transform="translate(-102.59 -89.01)"/><path class="cls-20" d="M819.9,471.6c-27.6-6.4-172.4-40.9-253.5-78.2,0,0-49.2-15.2-61.6-28a.68.68,0,0,1,.1-1h0a54.64,54.64,0,0,1,22.2-12.6l62-17.5,16.7-21.6a22.8,22.8,0,0,1,10.9-7.7h0a113.39,113.39,0,0,1,38.7-5.9c22.3.5,58.1,4.4,93.8,20.7A89.15,89.15,0,0,1,787.7,354h0l-1.3,43.4a6.63,6.63,0,0,0,1.5,4.3,418.94,418.94,0,0,1,28.2,37.4,52.27,52.27,0,0,1,8.4,28.7h0A3.89,3.89,0,0,1,819.9,471.6Z" transform="translate(-102.59 -89.01)"/><path class="cls-21" d="M638.2,301.5s81.6,15.6,93.8,60.6l-.9,26.4,4.7,60.5,82,22a3.82,3.82,0,0,0,4.9-3c.5-3.8-.9-11.7-8.8-28-7-14.4-15.4-23.8-19.6-26.8-5.4-3.8,1.2,6.5,0,0l-8-13.4V356.4C786.3,356.5,762.4,297.2,638.2,301.5Z" transform="translate(-102.59 -89.01)"/><polyline class="cls-4" points="591.51 214.09 574.01 285.89 535.61 332.09"/><polyline class="cls-4" points="605.71 216.99 591.51 289.19 564.31 341.39"/><polyline class="cls-4" points="621.11 221.19 605.71 294.39 596.51 351.09"/><polyline class="cls-4" points="636.31 226.59 621.11 298.99 624.21 359.29"/><polyline class="cls-4" points="650.61 232.89 638.51 301.39 650.61 365.99"/><polyline class="cls-4" points="666.31 242.59 654.81 304.29 681.11 374.79"/><polyline class="cls-4" points="680.01 257.79 670.81 308.49 708.71 380.59"/><path class="cls-22" d="M786.3,397.5C636.6,377.9,589,334.4,589,334.4l5.1-6.8s51.9,42.5,192.2,60.6Z" transform="translate(-102.59 -89.01)"/><polygon class="cls-1" points="127.51 456.49 160.01 451.69 179.91 449.09 193.61 451.69 264.71 450.39 287.51 449.09 321.41 443.69 364.61 453.59 362.91 456.49 127.51 456.49"/><path class="cls-23" d="M632.8,572s-18.9,63.5-55.6,61.5c0,0,30.9,15.1,40.9,7.5,0,0,27.3-17.1,45.6-37.3,0,0,6.4-5.4,4.6-15.6,0,0-14.5,4.2-20.8-3.4,0,0-7.8-7.2-5.1-16.6a71.24,71.24,0,0,1-8.8,3.9" transform="translate(-102.59 -89.01)"/><path class="cls-19" d="M606,429s5.2,4.7,1.9,11.1c-2.2,4.2-10.1,4.4-10.1,4.4s-3.1,14.4-13,15.3c0,0,10.5,2.5,30.8-3.4,0,0,15.7-3,11.8-12.8C627.4,443.6,623.2,433.1,606,429Z" transform="translate(-102.59 -89.01)"/><ellipse class="cls-24" cx="589.41" cy="432.03" rx="2.7" ry="4.1" transform="translate(-38.09 851.47) rotate(-80.33)"/><circle class="cls-25" cx="685.15" cy="480.99" r="3.2" transform="translate(-6.71 986.59) rotate(-80.33)"/><circle class="cls-25" cx="542.99" cy="412.23" r="3.2" transform="translate(-57.19 789.24) rotate(-80.33)"/><polygon class="cls-26" points="502.51 373.99 505.61 476.79 506.91 476.49 503.91 373.09 502.51 373.99"/><path class="cls-27" d="M630,570.2s11.9-11.9,4.3-15.1c0,0,10.1.9,13.9,2.1,0,0-4,4.6-5,8.1C643.2,565.3,633.6,569.3,630,570.2Z" transform="translate(-102.59 -89.01)"/><path class="cls-28" d="M455.7,703.3s8.3,1,9.2,3.8c0,0-22.8,60.4-29.4,57,0,0,2.8,7.3,11.2-1.8l27.7-62.7-16.7-1.7Z" transform="translate(-102.59 -89.01)"/><path class="cls-28" d="M434.2,683.1s2.5,7,13.4,7l93.2,7.8s-.3,2.8.4,4.2L442.5,694S432.5,692.3,434.2,683.1Z" transform="translate(-102.59 -89.01)"/><path class="cls-28" d="M572.2,704.7a120.85,120.85,0,0,0,14.1-14.5l4,.5s-3.8,7-8,10.8c0,0,60.5,8.5,63.9,2.2,0,0-1.3,4.4-9.6,6.2Z" transform="translate(-102.59 -89.01)"/><path class="cls-28" d="M614.4,711.3l-3.2,10.2s5.4-.5,8,3.7-15.1,72.9-26.5,69c0,0,3.4,6.7,9.3-.8,0,0,8-8.9,13.9-35.4l11.9-45.1C627.8,712.8,624.1,711.1,614.4,711.3Z" transform="translate(-102.59 -89.01)"/><path class="cls-28" d="M649.8,700.1,796.6,468.6l.5-.9,4.7,1.3L671.2,681.3s-12.6,22.2-17.5,23.6c0,0-5,3-7.5,3.6C646.2,708.4,650,704.1,649.8,700.1Z" transform="translate(-102.59 -89.01)"/><path class="cls-28" d="M699.7,639.4l-8.9,14.3,67.5,91.5s7.7,13.8,18.8,8.6c0,0-8.8-3.7-14.3-10.6s-64.2-87.5-64.2-87.5l6.4-9.2Z" transform="translate(-102.59 -89.01)"/><polygon class="cls-28" points="668.41 435.69 659.51 449.69 645.91 605.19 645.41 610.89 651.81 619.39 652.41 612.29 647.81 608.09 662.61 451.59 667.01 448.19 668.41 435.69"/><path class="cls-29" d="M658.8,705s33.4-19.4,40.7-35.2l-9.7-13C689.7,656.9,670.3,688.8,658.8,705Z" transform="translate(-102.59 -89.01)"/><path class="cls-29" d="M712.8,651.7s38.6-47.4,42.3-63l3.8-44-57.3,93.1Z" transform="translate(-102.59 -89.01)"/><polygon class="cls-29" points="667.01 483.69 711.21 382.69 702.41 380.59 670.81 431.29 667.01 483.69"/><path class="cls-29" d="M452.9,666s15.3-2.7,18.1-4.4c0,0,16.6,16.5,26.2,18.9l45.5,3.5,2.1-4.9s-42.8.8-72-29.7a93.39,93.39,0,0,1-17,12.5Z" transform="translate(-102.59 -89.01)"/><path class="cls-29" d="M590.1,686.1l-1.9,1.6,33,2.5s26.4-5.5,43.2-26.9L680.9,637s-21.5,19.5-37.8,27.2C643.1,664.2,622.8,677.2,590.1,686.1Z" transform="translate(-102.59 -89.01)"/><path class="cls-29" d="M772.7,461.6s-1.6,28.8-3.6,34.7l19.2-30.6Z" transform="translate(-102.59 -89.01)"/><path class="cls-29" d="M787.7,387.5v11.4s20.8,26.4,23.6,30.3c0,0-3.6-16.6-13.3-29.9l-1.7-11.8Z" transform="translate(-102.59 -89.01)"/><path class="cls-30" d="M542.2,356.5s19-10.9,35-10.6,14.4,13.3,33.4,16.2S651,373.5,643.2,382s-39.3,8.7-66-.9C550.5,371.3,528.2,362.8,542.2,356.5Z" transform="translate(-102.59 -89.01)"/><polyline class="cls-4" points="527.41 212.49 514.01 262.59 437.21 295.09"/><polyline class="cls-4" points="543.31 210.19 527.41 268.99 461.11 303.59"/><polyline class="cls-4" points="557.31 210.19 541.91 274.99 484.31 313.29"/><polyline class="cls-4" points="574.01 212.49 557.31 280.59 508.01 322.39"/><polyline class="cls-4" points="412.61 283.79 499.11 254.29 514.01 216.09"/><path class="cls-31" d="M514.2,513.9s-50.2,32.8-32.1,75.3,65.5,28.2,65.5,28.2-1.9-.2-2-7.7.3-37.1.3-37.1l.3-.9-.1-1.5.8-.7s15.4-12.2,51.7-17.4l1.2-3.5V507.8s-12.6-21.7-48.7-10.7l.3,2.1s4.7.9,7,16c0,0,1.6,27.9-15.9,27.3l-7.6-.5s-8.2,2.6-17.2-14.5C517.9,527.6,514.3,516.9,514.2,513.9Z" transform="translate(-102.59 -89.01)"/><path class="cls-32" d="M578.6,560.4s-19.3,5.4-19.6,7.7,19.6,3.7,19.6,3.7,3.7-1.1-1.4-2.4,1.6-6.5,1.6-6.5S581.6,561,578.6,560.4Z" transform="translate(-102.59 -89.01)"/><path class="cls-33" d="M556.1,579.3s14.1,6.6,25.7,3.8,15.3.9,13.1,8.4-5.2,33-20.2,27.5c-12.2-4.5-15.9-5.7-19.3-13.2a32.15,32.15,0,0,1-2.9-12.3C552.1,587.4,552.4,578.7,556.1,579.3Z" transform="translate(-102.59 -89.01)"/><path class="cls-1" d="M554.4,588.1a53.6,53.6,0,0,1,1.1,7.9c.1,1.4.2,2.6.4,3.8a24.48,24.48,0,0,0,.8,3.7,34.78,34.78,0,0,0,2.9,6.9l2,3.4c.7,1.2,1.3,2.3,1.9,3.6-1-.9-2-1.8-2.9-2.7a38.47,38.47,0,0,1-2.7-3,22.61,22.61,0,0,1-3.8-7.4,18.51,18.51,0,0,1-.7-4.1,27.74,27.74,0,0,1,.1-4.1A52.94,52.94,0,0,1,554.4,588.1Z" transform="translate(-102.59 -89.01)"/><path class="cls-1" d="M561.7,594.3a91.78,91.78,0,0,0,3,11.5,30.15,30.15,0,0,0,2.5,5.1,26,26,0,0,0,3.8,4.5,11.45,11.45,0,0,1-5.5-3.2,17.45,17.45,0,0,1-3.4-5.5,22,22,0,0,1-1.2-6.2A18.89,18.89,0,0,1,561.7,594.3Z" transform="translate(-102.59 -89.01)"/><path class="cls-4" d="M218.1,569s106.8-8.4,144.6-6.5,69.1,4.1,69.1,4.1" transform="translate(-102.59 -89.01)"/><path class="cls-4" d="M242.5,587.5s35.3-4.5,70.5-5.2,23.1-1.4,53.6,0" transform="translate(-102.59 -89.01)"/><path class="cls-4" d="M277.7,601s31.2-1.8,59-4.5" transform="translate(-102.59 -89.01)"/><path class="cls-4" d="M320.2,620s5.4-2.7,28,0" transform="translate(-102.59 -89.01)"/><path class="cls-4" d="M467.6,755.9s11.4,3,43.1,4.8,35.6,1.2,35.6,1.2" transform="translate(-102.59 -89.01)"/><path class="cls-4" d="M472.2,779.1a122.51,122.51,0,0,1,26.1,0" transform="translate(-102.59 -89.01)"/><path class="cls-4" d="M793.9,573s10.4-3.6,34.8-1.2c9.2.9,18.5,1.2,27.7,1.2h2.4" transform="translate(-102.59 -89.01)"/><line class="cls-4" x1="732.01" y1="519.19" x2="756.11" y2="519.19"/><path class="cls-4" d="M793.9,706.5s26.7-2,45,0" transform="translate(-102.59 -89.01)"/><path class="cls-4" d="M697.3,788.1s15.5,5.4,66,0" transform="translate(-102.59 -89.01)"/><path class="cls-4" d="M709.8,802.6s16.7-1.8,30.1,0" transform="translate(-102.59 -89.01)"/><path class="cls-34" d="M110.9,432.2s-27.1,123,38,234.2" transform="translate(-102.59 -89.01)"/><path class="cls-34" d="M276.3,809.8s59.5,66.4,170.9,87.4" transform="translate(-102.59 -89.01)"/><path class="cls-34" d="M300.7,863s31.2,35.3,88.1,44.7" transform="translate(-102.59 -89.01)"/><path class="cls-34" d="M903.3,646.4S888.2,760,780.3,819.3" transform="translate(-102.59 -89.01)"/><path class="cls-34" d="M813.3,183.6s82.7,61,97.6,147.8" transform="translate(-102.59 -89.01)"/><path class="cls-34" d="M866.9,203.8s38.2,26.4,46.1,68" transform="translate(-102.59 -89.01)"/><path class="cls-34" d="M312.7,136.4s32.5-35.3,101.7-44.7" transform="translate(-102.59 -89.01)"/><path class="cls-35" d="M203.5,696.4c7.8-16,16.7-30.6,42.9-45.9a136.12,136.12,0,0,1,39.9-15.1c62.8-13.4,102.3,44.7,108,72.8,0,0-49.5,61.2-43.6,94.2,3.1,17.7,4.4,22.3,12,30.1" transform="translate(-102.59 -89.01)"/><path class="cls-36" d="M233.1,658.6s-12.8-54.5-19.2-40.4,15.3,43,15.3,43Z" transform="translate(-102.59 -89.01)"/><path class="cls-35" d="M224.5,665.8a4.35,4.35,0,0,1-5.3.1c-11.1-8.6-52.2-41.7-42-53.5,9.9-11.5,39.6,32.5,48.5,46.4a5.42,5.42,0,0,1-1.2,7Z" transform="translate(-102.59 -89.01)"/><path class="cls-35" d="M219,672.2a2.62,2.62,0,0,1-2.9,1.2c-9.8-2.3-54.3-13.7-53.7-33.2s46.7,16.8,57.4,25.4a3.12,3.12,0,0,1,.7,4.2Z" transform="translate(-102.59 -89.01)"/><path class="cls-37" d="M354.4,650.4S422,631.1,414,708.6l-17.4,3.1C396.6,711.6,386.4,672,354.4,650.4Z" transform="translate(-102.59 -89.01)"/><path class="cls-38" d="M354.8,703.3s15.2-13.1,34.8,8.3a3,3,0,0,0,2.7.9c9.9-2.3,64.1-13.8,101.1-.6,38.5,13.8,44.6,60.6,17.2,87.6a12.83,12.83,0,0,1-13.7,2.7c-7-3-18-10.2-30.6-28.1,0,0-26.2-4.7-34.9,4.5,0,0,.4,36.4,18.3,54.5,16.3,16.6-11.8,23.3-35.2,8.2a138.61,138.61,0,0,0-14-8.2c-14.9-7.3-46.8-25.7-55.4-53.1C345.2,780,348.7,718.7,354.8,703.3Z" transform="translate(-102.59 -89.01)"/><path class="cls-39" d="M366.5,777.1c-.6-.1-1,.5-.7.9,5.4,7.4,32,42.5,56.7,46.1a3.68,3.68,0,0,0,3.8-5c-2.4-5.9-5.7-17.4-6.5-36.2a2.68,2.68,0,0,0-3-2.6C409.3,781.2,388.6,783,366.5,777.1Z" transform="translate(-102.59 -89.01)"/><path class="cls-40" d="M452.5,704.5s-58.5,19.7-21,74c0,0,2.2-3.2,10.2-4.9,12.5-2.5,25.3,2.4,33.9,11.8,11.1,12.1,29.7,26.8,41.6,6.3,17.8-30.9,6.5-51.6,6.5-51.6S511.6,704.1,452.5,704.5Z" transform="translate(-102.59 -89.01)"/><ellipse class="cls-41" cx="395.72" cy="661.93" rx="7.2" ry="8.8" transform="translate(-358.14 159.88) rotate(-26.74)"/><circle class="cls-25" cx="394.67" cy="663.61" r="2.1" transform="translate(-256.25 31.01) rotate(-14.51)"/><path class="cls-1" d="M431.5,778.6a64.06,64.06,0,0,1-9.5,2.7,81,81,0,0,1-9.7,1.4,116.63,116.63,0,0,1-19.6.1l-4.9-.4c-1.6-.1-3.2-.4-4.9-.6-3.2-.4-6.5-1.1-9.6-1.8a42.09,42.09,0,0,1-4.8-1.2c-1.6-.4-3.2-.9-4.7-1.3-3.1-1-6.2-2.1-9.2-3.3,3.3.1,6.5.5,9.7.7,1.6.1,3.2.3,4.8.4l2.4.2,2.4.2c1.6.1,3.2.3,4.8.5s3.2.3,4.8.4c3.2.3,6.4.5,9.6.8,6.4.4,12.7.8,19.1,1S425,778.7,431.5,778.6Z" transform="translate(-102.59 -89.01)"/><path class="cls-35" d="M362.7,832.7s-84.8-29.9-159.1-136.2" transform="translate(-102.59 -89.01)"/><path class="cls-42" d="M291,780.1c26,1.8,46.7-26.4,45-55.5s-24.6-51.4-51.2-49.9-46.7,26.4-45,55.5a107.6,107.6,0,0,0,2.2,14.1s16.6,18.2,28.7,28.9a26.31,26.31,0,0,0,16.5,6.6C288.4,780,289.8,780,291,780.1Z" transform="translate(-102.59 -89.01)"/><path class="cls-43" d="M498.3,736.8s-9.3-3.5-4.7,30.4,21.8-2.7,21.8-2.7,5.7-24.2-7.3-27.4C504.3,736.1,498.3,736.8,498.3,736.8Z" transform="translate(-102.59 -89.01)"/><path class="cls-44" d="M283.1,638.6s-36,23.6-37.3,44.5c0,0-1.4,2,0,13.3,0,0-10.8,16.3-7.5,41.4,0,0-19.2-19.8-32.7-41.4C205.6,696.4,218.5,654.3,283.1,638.6Z" transform="translate(-102.59 -89.01)"/><path class="cls-44" d="M177.1,639.3s-13.7,11.4,39.7,32c0,0-52.1-10.7-52.4-30.8C164.4,640.5,162.9,632.4,177.1,639.3Z" transform="translate(-102.59 -89.01)"/><path class="cls-44" d="M190.6,617.8s-11.1,4.9,33.3,45.8l-2.2,1.1s-53.7-39.7-42.5-51C179.2,613.7,182.2,610.3,190.6,617.8Z" transform="translate(-102.59 -89.01)"/><path class="cls-17" d="M248.5,702.1s7.2,81.1,62.6,70.5c0,0-21.5,15.2-42.5-4.4l-24.3-24.6S236.7,717.9,248.5,702.1Z" transform="translate(-102.59 -89.01)"/><path class="cls-17" d="M380.9,674.1s21.9,15.2,25.9,33.6l-8.5,1.7C398.3,709.3,393.8,693.2,380.9,674.1Z" transform="translate(-102.59 -89.01)"/><path class="cls-45" d="M384.5,717.6s-14.2,2.1-18.8,14.8" transform="translate(-102.59 -89.01)"/><path class="cls-1" d="M384.5,717.6l-5.3,3.3a57.8,57.8,0,0,0-4.8,3.3,50.7,50.7,0,0,0-4.4,3.7c-1.5,1.3-2.7,2.9-4.3,4.5a13,13,0,0,1,1.7-6.4,15.44,15.44,0,0,1,4.5-5,19.87,19.87,0,0,1,6-3A14.7,14.7,0,0,1,384.5,717.6Z" transform="translate(-102.59 -89.01)"/><path class="cls-46" d="M396.1,783.1s20,8.9,18.6,37.4c0,0-25.3-11.3-45.8-40.8C368.9,779.7,390.1,783.7,396.1,783.1Z" transform="translate(-102.59 -89.01)"/><path class="cls-47" d="M386.9,798.5s14.1-3.4,24.3,5.6c0,0-2.2-12-15.1-19.9,0,0-9.2.1-24.1-2.7A163.34,163.34,0,0,0,386.9,798.5Z" transform="translate(-102.59 -89.01)"/><path class="cls-48" d="M278.1,763.6c2.9,8.5,11,13.4,18,11.1s10.3-11.1,7.3-19.6-11-13.4-18-11.1S275.1,755.1,278.1,763.6Z" transform="translate(-102.59 -89.01)"/><path class="cls-25" d="M284.7,762.5a3.92,3.92,0,0,0,4.3,3.4,3.75,3.75,0,0,0,3.4-4.2,3.92,3.92,0,0,0-4.3-3.4A3.82,3.82,0,0,0,284.7,762.5Z" transform="translate(-102.59 -89.01)"/></svg>